<svg height="5.485163mm" viewBox="0 0 5.8208332 5.4851627" width="5.820833mm"
    xmlns="http://www.w3.org/2000/svg">
    <g transform="matrix(1.4664468 0 0 1.4664092 -91.591331 -91.904945)">
        <path
            d="m65.27 62.689c.183-.037.29-.008.375.088.075.085.084.24.037.339-.053.113-.215.169-.339.157-.104-.01-.229-.082-.256-.183-.038-.142.025-.365.183-.401z" />
        <path
            d="m64.248 63.2s.552-.094.803 0c.242.091.585.511.585.511l.365-.365s.139-.043.182 0 0 .183 0 .183l-.365.365-.123.151-.133.032-.365-.292c-.213.103-.45.351-.505.612 0 0 .371.185.483.349.03.043.039.153.039.153l-.093.226-.129.412-.16.512-.256-.182.146-.439.146-.486-.62-.354-.366.438-.384.021-.748-.021v-.292l.895.009.42-.703.511-.584-.234-.034-.569.631s-.097-.012-.124-.047c-.038-.049-.023-.185-.023-.185l.475-.548z" />
        <path d="m66.06 63.401.129.053-.882 2.595h-.22v-.11z" />
        <path
            d="m62.486 63.941 1.199-.077c.042.001.059.003.041.147l-1.241.064c-.042-.003-.017.01.001-.134z" />
        <path
            d="m62.494 64.88.677.64s.167.22.332.333c.075.051.27-.023.27-.023.06.146-.023.309-.206.26 0 0-.092-.011-.123-.041-.318-.303-.986-.986-.986-.986z" />
        <path d="m66.293 65.976c.128-.041.165.02.109.182l-.072.184-.183.072h-2.922l-.11-.219h2.959z" />
    </g>
</svg>