<svg height="5.816813mm" viewBox="0 0 5.8207846 5.8168125" width="5.820785mm"
    xmlns="http://www.w3.org/2000/svg">
    <path
        d="m146.23391 74.101876c-1.14758-.322091-2.11388-.608331-2.14733-.636091-.0334-.02776-.0608-.108614-.0608-.179677v-.129205l.0961-.06298.0961-.06298.25793.06981.25792.06982.56924-.595103.56924-.595102.27313-.597014c.15023-.328357.29373-.623828.31889-.656601.0252-.03277.21474-.194992.42129-.360486.20655-.165495.37555-.303341.37556-.306325.00001-.003-.091.000688-.20221.0082l-.20224.01358-.33813.251109c-.18597.13811-.36251.285922-.39232.328472-.0298.04255-.10067.08247-.1575.0887-.0568.0062-.14399-.0072-.19371-.02985-.0497-.02265-.10401-.081-.12064-.129668-.0179-.05241-.35705-.333699-.83186-.689982l-.80161-.601501.012-.08403c.007-.04622.0433-.08999.0815-.09727.0428-.0082.35783.203155.82082.550577.41325.310099.77461.572734.80301.583633.0284.0109.26239-.137376.51998-.329498l.46835-.349314h.75066.75066l.10905.05639c.06.03101.15375.109522.20839.17446.0546.06494.11078.17897.12474.253405.0167.08913.003.19368-.0399.306229l-.0653.170892-.4208.334698c-.23143.184083-.42079.347695-.42079.36358 0 .01589.0834.121276.18544.234202.102.112924.21466.248173.25036.300551l.0649.09523v.588443.588443h.70737.70737l.10149.07983c.0598.04707.10148.118197.10148.173327 0 .05142-.0347.128162-.077.170531l-.077.07703h-1.14378-1.14378l-.59912-.156269c-.32951-.08595-.66539-.173625-.7464-.194837l-.14728-.03857.0461-.05552.0461-.05552h.8662.8662l-.0221-.12518c-.0122-.06885-.0424-.281174-.0673-.471834-.0249-.190659-.0645-.36743-.0881-.392826-.0236-.02539-.17114-.116473-.32784-.202393l-.2849-.156218-.52395.533504c-.28817.293428-.65979.658876-.82581.812106-.16602.153231-.29601.283727-.28888.28999.007.0063.74095.212729 1.6307.45881l1.61771.44742.0674.08163c.0371.04489.0674.11437.0674.154392 0 .04002-.0347.107432-.077.149801-.043.04303-.12379.0752-.18296.07288-.0583-.0023-1.04485-.267685-2.19243-.589775zm2.8867-4.068706c-.0683-.01447-.16944-.05594-.2247-.09215-.0553-.03621-.13332-.138153-.17345-.226536-.0401-.08838-.0733-.202887-.0738-.254455-.00052-.05157.0341-.164231.0768-.25036.0427-.08613.1238-.190098.18027-.231041.0587-.04252.18642-.0807.29795-.08903l.19527-.01459.13481.07378c.0741.04058.17352.141311.22084.223843.0473.08253.0863.210993.0867.285469.00027.07448-.0315.195246-.0707.268379-.0392.07313-.11422.16501-.16667.20417-.0525.03916-.15469.08417-.2272.100019-.0725.01585-.18772.01698-.25604.0025z"
        stroke-width=".052895" transform="translate(-144.02094 -68.875018)" />
</svg>